<?xml version="1.0" encoding="UTF-8"?>
<svg id="Ebene_2" data-name="Ebene 2" xmlns="http://www.w3.org/2000/svg" viewBox="0 0 1055.5 1042.94">
  <defs>
    <style>
      .cls-1 {
        stroke-width: 0px;
      }
    </style>
  </defs>
  <g id="Ebene_1-2" data-name="Ebene 1-2">
    <path class="cls-1" d="M384.33,474.35c-3.76-.28,4.87-.62,5.74-.16-1.78.36-3.89.24-5.74.16Z"/>
    <path class="cls-1" d="M11.06,1037.05c-5.02-4.94-8.02-11.01-5-18.58.4-1.01.68-2.06.93-3.11,7.35-31.37,14.59-62.76,22.01-94.12C101.82,629.64,135.48,330.4,174.62,32.92c.67-4.74,1.29-9.51,2.15-14.23,1.63-9,8.82-16.06,17.89-17.13.05,0,.1,0,.15-.02.54-.07,1.07-.13,1.61-.16,34.03-1.92,68.29-1.98,102.29.57.19.02,8.36.38,8.64,1.9,2.15,11.43.84,23.47-.36,34.97-9.51,78.45-23.63,156.27-36.45,234.22-23.35,139.18-46.83,278.67-83.8,415.02-23.88,89.86-54.34,177.93-91.62,263.12-11.72,25.18-22.11,51.61-37.7,74.67-1.28,1.9-2.88,3.55-4.72,4.92-5.46,4.08-11.7,6.98-17.85,9.98-7.93,3.89-17.51,2.49-23.81-3.72h.02Z"/>
    <path class="cls-1" d="M949.39,932.56c-4.72-.21-9.44-.55-14.15-.99-.18-.02-8.52-.38-8.81-1.94-8.37-45.14-17.18-90.2-26.1-135.23-19.92-103.88-38.35-208.35-69.93-309.49-9.36-28.86-18.79-58.31-32.95-85.27-6.59-12.55-23.18-15.69-33.82-6.31-50.28,44.25-96.2,93.33-146.27,137.86-32.43,28-65.53,58.97-107.23,72.01-.61.19-1.24.36-1.86.51-26.1,5.96-53.26,7.88-79.88,8.36-26.56-.68-54.13-1.61-79.93-8.86-.98-.27-1.95-.61-2.88-1.04-30.78-13.99-35.68-53.02-39.44-83.05-4.54-42.05-5.42-84.39-8.26-126.56-4.8-53.35-6.17-110.97-28.56-160.38-5.77-12.74-21.91-16.72-33.09-8.31-39.48,29.68-75.4,64.06-107.9,101.2-13.78,15.71-26.84,32.05-39.39,48.76-11.61,14.92-18.22,25.05-37.87,41.74-6.19,3.61-12.59,7.33-19.01,10.77-10.95,5.88-24.7,1.61-30.05-9.6-.05-.11-.11-.21-.16-.33-2.88-6.23-2.36-13.51,1-19.49,1.51-2.69,3.2-5.29,4.53-8.04,33.98-62.07,75.8-120.4,129.19-167.26,47.31-45.25,80.99-43.09,142.48-42.54,72.64-1.86,98.11,12.96,120.92,83.77,15.7,53.72,19.46,110.07,23.71,165.63,3.53,34.87,3.82,70.84,10.5,105.38,3.2,16.54,23.01,23.59,35.76,12.56,55.69-48.14,105.64-102.64,160.41-151.82,31.94-29.26,68.07-59.16,113.85-57.47.55.02,1.12.02,1.67,0,30.35-1.42,60.77-1.24,91.12.05,23.51.29,48.16,4.92,64.91,22.78,57.96,60.48,91.75,234.84,110.46,319.84,16.62,82.88,28.33,166.64,43.11,249.86.28,1.63-14.9,2.45-15.18,2.47-30.26,1.92-60.67,1.72-90.95.47l.02-.02Z"/>
  </g>
</svg>